<mxfile host="app.diagrams.net" modified="2023-02-16T04:43:19.046Z" agent="5.0 (Windows NT 10.0; Win64; x64) AppleWebKit/537.36 (KHTML, like Gecko) Chrome/110.0.0.0 Safari/537.36" etag="TqXoxZ6ZO0kKt8VUeuuV" version="20.8.20" type="github">
  <diagram name="페이지-1" id="SaMpR5G6Mgzdkvtq6LY5">
    <mxGraphModel dx="1893" dy="934" grid="1" gridSize="10" guides="1" tooltips="1" connect="1" arrows="1" fold="1" page="1" pageScale="1" pageWidth="1169" pageHeight="827" math="0" shadow="0">
      <root>
        <mxCell id="0" />
        <mxCell id="1" parent="0" />
        <mxCell id="h4AE-v895PUxvbg3pdBg-1" value="" style="rounded=0;whiteSpace=wrap;html=1;" vertex="1" parent="1">
          <mxGeometry x="205" y="310" width="240" height="120" as="geometry" />
        </mxCell>
        <mxCell id="h4AE-v895PUxvbg3pdBg-2" value="" style="rounded=0;whiteSpace=wrap;html=1;" vertex="1" parent="1">
          <mxGeometry x="466" y="310" width="240" height="120" as="geometry" />
        </mxCell>
        <mxCell id="h4AE-v895PUxvbg3pdBg-3" value="" style="rounded=0;whiteSpace=wrap;html=1;" vertex="1" parent="1">
          <mxGeometry x="725" y="310" width="240" height="120" as="geometry" />
        </mxCell>
        <mxCell id="h4AE-v895PUxvbg3pdBg-7" value="&lt;font style=&quot;font-size: 25px;&quot;&gt;LUN 1&lt;/font&gt;" style="rounded=0;whiteSpace=wrap;html=1;" vertex="1" parent="1">
          <mxGeometry x="416.5" y="550" width="160" height="120" as="geometry" />
        </mxCell>
        <mxCell id="h4AE-v895PUxvbg3pdBg-8" value="&lt;font style=&quot;font-size: 25px;&quot;&gt;LUN 2&lt;/font&gt;" style="rounded=0;whiteSpace=wrap;html=1;" vertex="1" parent="1">
          <mxGeometry x="595.5" y="550" width="160" height="120" as="geometry" />
        </mxCell>
        <mxCell id="h4AE-v895PUxvbg3pdBg-9" value="" style="endArrow=none;html=1;rounded=0;entryX=0.5;entryY=1;entryDx=0;entryDy=0;exitX=0.5;exitY=0;exitDx=0;exitDy=0;" edge="1" parent="1" source="h4AE-v895PUxvbg3pdBg-7" target="h4AE-v895PUxvbg3pdBg-1">
          <mxGeometry width="50" height="50" relative="1" as="geometry">
            <mxPoint x="485" y="490" as="sourcePoint" />
            <mxPoint x="645" y="420" as="targetPoint" />
          </mxGeometry>
        </mxCell>
        <mxCell id="h4AE-v895PUxvbg3pdBg-10" value="" style="endArrow=none;html=1;rounded=0;exitX=0.5;exitY=0;exitDx=0;exitDy=0;" edge="1" parent="1" source="h4AE-v895PUxvbg3pdBg-7">
          <mxGeometry width="50" height="50" relative="1" as="geometry">
            <mxPoint x="595" y="470" as="sourcePoint" />
            <mxPoint x="595" y="430" as="targetPoint" />
          </mxGeometry>
        </mxCell>
        <mxCell id="h4AE-v895PUxvbg3pdBg-11" value="" style="endArrow=none;html=1;rounded=0;exitX=0.5;exitY=0;exitDx=0;exitDy=0;entryX=0.5;entryY=1;entryDx=0;entryDy=0;" edge="1" parent="1" source="h4AE-v895PUxvbg3pdBg-7" target="h4AE-v895PUxvbg3pdBg-3">
          <mxGeometry width="50" height="50" relative="1" as="geometry">
            <mxPoint x="595" y="470" as="sourcePoint" />
            <mxPoint x="645" y="420" as="targetPoint" />
          </mxGeometry>
        </mxCell>
        <mxCell id="h4AE-v895PUxvbg3pdBg-12" value="" style="endArrow=none;html=1;rounded=0;entryX=0.5;entryY=0;entryDx=0;entryDy=0;exitX=0.5;exitY=1;exitDx=0;exitDy=0;" edge="1" parent="1" source="h4AE-v895PUxvbg3pdBg-1" target="h4AE-v895PUxvbg3pdBg-8">
          <mxGeometry width="50" height="50" relative="1" as="geometry">
            <mxPoint x="570" y="450" as="sourcePoint" />
            <mxPoint x="620" y="400" as="targetPoint" />
          </mxGeometry>
        </mxCell>
        <mxCell id="h4AE-v895PUxvbg3pdBg-13" value="" style="endArrow=none;html=1;rounded=0;exitX=0.5;exitY=0;exitDx=0;exitDy=0;" edge="1" parent="1" source="h4AE-v895PUxvbg3pdBg-8">
          <mxGeometry width="50" height="50" relative="1" as="geometry">
            <mxPoint x="570" y="450" as="sourcePoint" />
            <mxPoint x="590" y="430" as="targetPoint" />
          </mxGeometry>
        </mxCell>
        <mxCell id="h4AE-v895PUxvbg3pdBg-14" value="" style="endArrow=none;html=1;rounded=0;exitX=0.5;exitY=0;exitDx=0;exitDy=0;" edge="1" parent="1" source="h4AE-v895PUxvbg3pdBg-8">
          <mxGeometry width="50" height="50" relative="1" as="geometry">
            <mxPoint x="570" y="450" as="sourcePoint" />
            <mxPoint x="840" y="430" as="targetPoint" />
          </mxGeometry>
        </mxCell>
      </root>
    </mxGraphModel>
  </diagram>
</mxfile>
